<?xml version="1.0" encoding="utf-8" standalone="no"?>
<!DOCTYPE svg PUBLIC "-//W3C//DTD SVG 1.1//EN"
  "http://www.w3.org/Graphics/SVG/1.1/DTD/svg11.dtd">
<svg xmlns:xlink="http://www.w3.org/1999/xlink" width="504pt" height="140.4pt" viewBox="0 0 504 140.4" xmlns="http://www.w3.org/2000/svg" version="1.1">
 <metadata>
  <rdf:RDF xmlns:dc="http://purl.org/dc/elements/1.1/" xmlns:cc="http://creativecommons.org/ns#" xmlns:rdf="http://www.w3.org/1999/02/22-rdf-syntax-ns#">
   <cc:Work>
    <dc:type rdf:resource="http://purl.org/dc/dcmitype/StillImage"/>
    <dc:date>2026-09-17T21:31:27.510587</dc:date>
    <dc:format>image/svg+xml</dc:format>
    <dc:creator>
     <cc:Agent>
      <dc:title>Matplotlib v3.11.2, https://matplotlib.org/</dc:title>
     </cc:Agent>
    </dc:creator>
   </cc:Work>
  </rdf:RDF>
 </metadata>
 <defs>
  <style type="text/css">*{stroke-linejoin: round; stroke-linecap: butt}</style>
 </defs>
 <g id="figure_1">
  <g id="patch_1">
   <path d="M 0 140.4 
L 504 140.4 
L 504 0 
L 0 0 
z
" style="fill: #ffffff"/>
  </g>
  <g id="axes_1">
   <g id="patch_2">
    <path d="M 40.32 96.876 
L 244.644324 96.876 
L 244.644324 28.08 
L 40.32 28.08 
z
" style="fill: #ffffff"/>
   </g>
   <g id="patch_3">
    <path d="M 41.137297 32.20776 
L 59.935135 32.20776 
L 59.935135 58.35024 
L 41.137297 58.35024 
z
" clip-path="url(#p2d973a5de8)" style="fill: #227d6c"/>
   </g>
   <g id="patch_4">
    <path d="M 61.56973 32.20776 
L 80.367568 32.20776 
L 80.367568 58.35024 
L 61.56973 58.35024 
z
" clip-path="url(#p2d973a5de8)" style="fill: #227d6c"/>
   </g>
   <g id="patch_5">
    <path d="M 82.002162 32.20776 
L 100.8 32.20776 
L 100.8 58.35024 
L 82.002162 58.35024 
z
" clip-path="url(#p2d973a5de8)" style="fill: #227d6c"/>
   </g>
   <g id="patch_6">
    <path d="M 102.434595 32.20776 
L 121.232432 32.20776 
L 121.232432 58.35024 
L 102.434595 58.35024 
z
" clip-path="url(#p2d973a5de8)" style="fill: #227d6c"/>
   </g>
   <g id="patch_7">
    <path d="M 122.867027 32.20776 
L 141.664865 32.20776 
L 141.664865 58.35024 
L 122.867027 58.35024 
z
" clip-path="url(#p2d973a5de8)" style="fill: #227d6c"/>
   </g>
   <g id="patch_8">
    <path d="M 143.299459 32.20776 
L 162.097297 32.20776 
L 162.097297 58.35024 
L 143.299459 58.35024 
z
" clip-path="url(#p2d973a5de8)" style="fill: #227d6c"/>
   </g>
   <g id="patch_9">
    <path d="M 163.731892 32.20776 
L 182.52973 32.20776 
L 182.52973 58.35024 
L 163.731892 58.35024 
z
" clip-path="url(#p2d973a5de8)" style="fill: #227d6c"/>
   </g>
   <g id="patch_10">
    <path d="M 184.164324 32.20776 
L 202.962162 32.20776 
L 202.962162 58.35024 
L 184.164324 58.35024 
z
" clip-path="url(#p2d973a5de8)" style="fill: #227d6c"/>
   </g>
   <g id="patch_11">
    <path d="M 204.596757 32.20776 
L 223.394595 32.20776 
L 223.394595 58.35024 
L 204.596757 58.35024 
z
" clip-path="url(#p2d973a5de8)" style="fill: #227d6c"/>
   </g>
   <g id="patch_12">
    <path d="M 225.029189 32.20776 
L 243.827027 32.20776 
L 243.827027 58.35024 
L 225.029189 58.35024 
z
" clip-path="url(#p2d973a5de8)" style="fill: #227d6c"/>
   </g>
   <g id="patch_13">
    <path d="M 41.137297 66.60576 
L 59.935135 66.60576 
L 59.935135 92.74824 
L 41.137297 92.74824 
z
" clip-path="url(#p2d973a5de8)" style="fill: #227d6c"/>
   </g>
   <g id="patch_14">
    <path d="M 61.56973 66.60576 
L 80.367568 66.60576 
L 80.367568 92.74824 
L 61.56973 92.74824 
z
" clip-path="url(#p2d973a5de8)" style="fill: #a85421"/>
   </g>
   <g id="patch_15">
    <path d="M 82.002162 66.60576 
L 100.8 66.60576 
L 100.8 92.74824 
L 82.002162 92.74824 
z
" clip-path="url(#p2d973a5de8)" style="fill: #227d6c"/>
   </g>
   <g id="patch_16">
    <path d="M 102.434595 66.60576 
L 121.232432 66.60576 
L 121.232432 92.74824 
L 102.434595 92.74824 
z
" clip-path="url(#p2d973a5de8)" style="fill: #227d6c"/>
   </g>
   <g id="patch_17">
    <path d="M 122.867027 66.60576 
L 141.664865 66.60576 
L 141.664865 92.74824 
L 122.867027 92.74824 
z
" clip-path="url(#p2d973a5de8)" style="fill: #227d6c"/>
   </g>
   <g id="patch_18">
    <path d="M 143.299459 66.60576 
L 162.097297 66.60576 
L 162.097297 92.74824 
L 143.299459 92.74824 
z
" clip-path="url(#p2d973a5de8)" style="fill: #227d6c"/>
   </g>
   <g id="patch_19">
    <path d="M 163.731892 66.60576 
L 182.52973 66.60576 
L 182.52973 92.74824 
L 163.731892 92.74824 
z
" clip-path="url(#p2d973a5de8)" style="fill: #227d6c"/>
   </g>
   <g id="patch_20">
    <path d="M 184.164324 66.60576 
L 202.962162 66.60576 
L 202.962162 92.74824 
L 184.164324 92.74824 
z
" clip-path="url(#p2d973a5de8)" style="fill: #227d6c"/>
   </g>
   <g id="patch_21">
    <path d="M 204.596757 66.60576 
L 223.394595 66.60576 
L 223.394595 92.74824 
L 204.596757 92.74824 
z
" clip-path="url(#p2d973a5de8)" style="fill: #227d6c"/>
   </g>
   <g id="patch_22">
    <path d="M 225.029189 66.60576 
L 243.827027 66.60576 
L 243.827027 92.74824 
L 225.029189 92.74824 
z
" clip-path="url(#p2d973a5de8)" style="fill: #227d6c"/>
   </g>
   <g id="matplotlib.axis_1">
    <g id="xtick_1">
     <g id="line2d_1"/>
     <g id="text_1">
      <text style="font-size: 8px; font-family: 'Times New Roman'" transform="translate(47.597274 116.421316) rotate(-55)">1103</text>
     </g>
    </g>
    <g id="xtick_2">
     <g id="line2d_2"/>
     <g id="text_2">
      <text style="font-size: 8px; font-family: 'Times New Roman'" transform="translate(67.944746 116.66399) rotate(-55)">1229</text>
     </g>
    </g>
    <g id="xtick_3">
     <g id="line2d_3"/>
     <g id="text_3">
      <text style="font-size: 8px; font-family: 'Times New Roman'" transform="translate(88.377178 116.66399) rotate(-55)">1361</text>
     </g>
    </g>
    <g id="xtick_4">
     <g id="line2d_4"/>
     <g id="text_4">
      <text style="font-size: 8px; font-family: 'Times New Roman'" transform="translate(108.80961 116.66399) rotate(-55)">1499</text>
     </g>
    </g>
    <g id="xtick_5">
     <g id="line2d_5"/>
     <g id="text_5">
      <text style="font-size: 8px; font-family: 'Times New Roman'" transform="translate(129.242043 116.66399) rotate(-55)">1621</text>
     </g>
    </g>
    <g id="xtick_6">
     <g id="line2d_6"/>
     <g id="text_6">
      <text style="font-size: 8px; font-family: 'Times New Roman'" transform="translate(149.674475 116.66399) rotate(-55)">1747</text>
     </g>
    </g>
    <g id="xtick_7">
     <g id="line2d_7"/>
     <g id="text_7">
      <text style="font-size: 8px; font-family: 'Times New Roman'" transform="translate(170.106908 116.66399) rotate(-55)">1877</text>
     </g>
    </g>
    <g id="xtick_8">
     <g id="line2d_8"/>
     <g id="text_8">
      <text style="font-size: 8px; font-family: 'Times New Roman'" transform="translate(190.53934 116.66399) rotate(-55)">1999</text>
     </g>
    </g>
    <g id="xtick_9">
     <g id="line2d_9"/>
     <g id="text_9">
      <text style="font-size: 8px; font-family: 'Times New Roman'" transform="translate(210.971773 116.66399) rotate(-55)">2131</text>
     </g>
    </g>
    <g id="xtick_10">
     <g id="line2d_10"/>
     <g id="text_10">
      <text style="font-size: 8px; font-family: 'Times New Roman'" transform="translate(231.404205 116.66399) rotate(-55)">2267</text>
     </g>
    </g>
   </g>
   <g id="matplotlib.axis_2">
    <g id="ytick_1">
     <g id="line2d_11"/>
     <g id="text_11">
      <text style="font-size: 8px; font-family: 'Times New Roman'; text-anchor: end" x="36.82" y="48.052437" transform="rotate(-0 36.82 48.052437)">SIFT</text>
     </g>
    </g>
    <g id="ytick_2">
     <g id="line2d_12"/>
     <g id="text_12">
      <text style="font-size: 8px; font-family: 'Times New Roman'; text-anchor: end" x="36.82" y="82.4545" transform="rotate(-0 36.82 82.4545)">Arxiv</text>
     </g>
    </g>
   </g>
   <g id="text_13">
    <text style="font-size: 9px; font-family: 'Times New Roman'; text-anchor: middle; fill: #ffffff" x="50.536216" y="47.427926" transform="rotate(-0 50.536216 47.427926)">C</text>
   </g>
   <g id="text_14">
    <text style="font-size: 9px; font-family: 'Times New Roman'; text-anchor: middle; fill: #ffffff" x="70.968649" y="47.427926" transform="rotate(-0 70.968649 47.427926)">C</text>
   </g>
   <g id="text_15">
    <text style="font-size: 9px; font-family: 'Times New Roman'; text-anchor: middle; fill: #ffffff" x="91.401081" y="47.427926" transform="rotate(-0 91.401081 47.427926)">C</text>
   </g>
   <g id="text_16">
    <text style="font-size: 9px; font-family: 'Times New Roman'; text-anchor: middle; fill: #ffffff" x="111.833514" y="47.427926" transform="rotate(-0 111.833514 47.427926)">C</text>
   </g>
   <g id="text_17">
    <text style="font-size: 9px; font-family: 'Times New Roman'; text-anchor: middle; fill: #ffffff" x="132.265946" y="47.427926" transform="rotate(-0 132.265946 47.427926)">C</text>
   </g>
   <g id="text_18">
    <text style="font-size: 9px; font-family: 'Times New Roman'; text-anchor: middle; fill: #ffffff" x="152.698378" y="47.427926" transform="rotate(-0 152.698378 47.427926)">C</text>
   </g>
   <g id="text_19">
    <text style="font-size: 9px; font-family: 'Times New Roman'; text-anchor: middle; fill: #ffffff" x="173.130811" y="47.427926" transform="rotate(-0 173.130811 47.427926)">C</text>
   </g>
   <g id="text_20">
    <text style="font-size: 9px; font-family: 'Times New Roman'; text-anchor: middle; fill: #ffffff" x="193.563243" y="47.427926" transform="rotate(-0 193.563243 47.427926)">C</text>
   </g>
   <g id="text_21">
    <text style="font-size: 9px; font-family: 'Times New Roman'; text-anchor: middle; fill: #ffffff" x="213.995676" y="47.427926" transform="rotate(-0 213.995676 47.427926)">C</text>
   </g>
   <g id="text_22">
    <text style="font-size: 9px; font-family: 'Times New Roman'; text-anchor: middle; fill: #ffffff" x="234.428108" y="47.427926" transform="rotate(-0 234.428108 47.427926)">C</text>
   </g>
   <g id="text_23">
    <text style="font-size: 9px; font-family: 'Times New Roman'; text-anchor: middle; fill: #ffffff" x="50.536216" y="81.825926" transform="rotate(-0 50.536216 81.825926)">C</text>
   </g>
   <g id="text_24">
    <text style="font-size: 9px; font-family: 'Times New Roman'; text-anchor: middle; fill: #ffffff" x="70.968649" y="81.825926" transform="rotate(-0 70.968649 81.825926)">E</text>
   </g>
   <g id="text_25">
    <text style="font-size: 9px; font-family: 'Times New Roman'; text-anchor: middle; fill: #ffffff" x="91.401081" y="81.825926" transform="rotate(-0 91.401081 81.825926)">C</text>
   </g>
   <g id="text_26">
    <text style="font-size: 9px; font-family: 'Times New Roman'; text-anchor: middle; fill: #ffffff" x="111.833514" y="81.825926" transform="rotate(-0 111.833514 81.825926)">C</text>
   </g>
   <g id="text_27">
    <text style="font-size: 9px; font-family: 'Times New Roman'; text-anchor: middle; fill: #ffffff" x="132.265946" y="81.825926" transform="rotate(-0 132.265946 81.825926)">C</text>
   </g>
   <g id="text_28">
    <text style="font-size: 9px; font-family: 'Times New Roman'; text-anchor: middle; fill: #ffffff" x="152.698378" y="81.825926" transform="rotate(-0 152.698378 81.825926)">C</text>
   </g>
   <g id="text_29">
    <text style="font-size: 9px; font-family: 'Times New Roman'; text-anchor: middle; fill: #ffffff" x="173.130811" y="81.825926" transform="rotate(-0 173.130811 81.825926)">C</text>
   </g>
   <g id="text_30">
    <text style="font-size: 9px; font-family: 'Times New Roman'; text-anchor: middle; fill: #ffffff" x="193.563243" y="81.825926" transform="rotate(-0 193.563243 81.825926)">C</text>
   </g>
   <g id="text_31">
    <text style="font-size: 9px; font-family: 'Times New Roman'; text-anchor: middle; fill: #ffffff" x="213.995676" y="81.825926" transform="rotate(-0 213.995676 81.825926)">C</text>
   </g>
   <g id="text_32">
    <text style="font-size: 9px; font-family: 'Times New Roman'; text-anchor: middle; fill: #ffffff" x="234.428108" y="81.825926" transform="rotate(-0 234.428108 81.825926)">C</text>
   </g>
   <g id="text_33">
    <text style="font-size: 10px; font-family: 'Times New Roman'; text-anchor: middle" x="142.482162" y="22.08" transform="rotate(-0 142.482162 22.08)">Original checks</text>
   </g>
  </g>
  <g id="axes_2">
   <g id="patch_23">
    <path d="M 289.595676 96.876 
L 493.92 96.876 
L 493.92 28.08 
L 289.595676 28.08 
z
" style="fill: #ffffff"/>
   </g>
   <g id="patch_24">
    <path d="M 290.412973 32.20776 
L 309.210811 32.20776 
L 309.210811 58.35024 
L 290.412973 58.35024 
z
" clip-path="url(#p7e9b806a50)" style="fill: #227d6c"/>
   </g>
   <g id="patch_25">
    <path d="M 310.845405 32.20776 
L 329.643243 32.20776 
L 329.643243 58.35024 
L 310.845405 58.35024 
z
" clip-path="url(#p7e9b806a50)" style="fill: #227d6c"/>
   </g>
   <g id="patch_26">
    <path d="M 331.277838 32.20776 
L 350.075676 32.20776 
L 350.075676 58.35024 
L 331.277838 58.35024 
z
" clip-path="url(#p7e9b806a50)" style="fill: #227d6c"/>
   </g>
   <g id="patch_27">
    <path d="M 351.71027 32.20776 
L 370.508108 32.20776 
L 370.508108 58.35024 
L 351.71027 58.35024 
z
" clip-path="url(#p7e9b806a50)" style="fill: #227d6c"/>
   </g>
   <g id="patch_28">
    <path d="M 372.142703 32.20776 
L 390.940541 32.20776 
L 390.940541 58.35024 
L 372.142703 58.35024 
z
" clip-path="url(#p7e9b806a50)" style="fill: #227d6c"/>
   </g>
   <g id="patch_29">
    <path d="M 392.575135 32.20776 
L 411.372973 32.20776 
L 411.372973 58.35024 
L 392.575135 58.35024 
z
" clip-path="url(#p7e9b806a50)" style="fill: #227d6c"/>
   </g>
   <g id="patch_30">
    <path d="M 413.007568 32.20776 
L 431.805405 32.20776 
L 431.805405 58.35024 
L 413.007568 58.35024 
z
" clip-path="url(#p7e9b806a50)" style="fill: #227d6c"/>
   </g>
   <g id="patch_31">
    <path d="M 433.44 32.20776 
L 452.237838 32.20776 
L 452.237838 58.35024 
L 433.44 58.35024 
z
" clip-path="url(#p7e9b806a50)" style="fill: #227d6c"/>
   </g>
   <g id="patch_32">
    <path d="M 453.872432 32.20776 
L 472.67027 32.20776 
L 472.67027 58.35024 
L 453.872432 58.35024 
z
" clip-path="url(#p7e9b806a50)" style="fill: #227d6c"/>
   </g>
   <g id="patch_33">
    <path d="M 474.304865 32.20776 
L 493.102703 32.20776 
L 493.102703 58.35024 
L 474.304865 58.35024 
z
" clip-path="url(#p7e9b806a50)" style="fill: #227d6c"/>
   </g>
   <g id="patch_34">
    <path d="M 290.412973 66.60576 
L 309.210811 66.60576 
L 309.210811 92.74824 
L 290.412973 92.74824 
z
" clip-path="url(#p7e9b806a50)" style="fill: #227d6c"/>
   </g>
   <g id="patch_35">
    <path d="M 310.845405 66.60576 
L 329.643243 66.60576 
L 329.643243 92.74824 
L 310.845405 92.74824 
z
" clip-path="url(#p7e9b806a50)" style="fill: #a85421"/>
   </g>
   <g id="patch_36">
    <path d="M 331.277838 66.60576 
L 350.075676 66.60576 
L 350.075676 92.74824 
L 331.277838 92.74824 
z
" clip-path="url(#p7e9b806a50)" style="fill: #227d6c"/>
   </g>
   <g id="patch_37">
    <path d="M 351.71027 66.60576 
L 370.508108 66.60576 
L 370.508108 92.74824 
L 351.71027 92.74824 
z
" clip-path="url(#p7e9b806a50)" style="fill: #a85421"/>
   </g>
   <g id="patch_38">
    <path d="M 372.142703 66.60576 
L 390.940541 66.60576 
L 390.940541 92.74824 
L 372.142703 92.74824 
z
" clip-path="url(#p7e9b806a50)" style="fill: #a85421"/>
   </g>
   <g id="patch_39">
    <path d="M 392.575135 66.60576 
L 411.372973 66.60576 
L 411.372973 92.74824 
L 392.575135 92.74824 
z
" clip-path="url(#p7e9b806a50)" style="fill: #227d6c"/>
   </g>
   <g id="patch_40">
    <path d="M 413.007568 66.60576 
L 431.805405 66.60576 
L 431.805405 92.74824 
L 413.007568 92.74824 
z
" clip-path="url(#p7e9b806a50)" style="fill: #227d6c"/>
   </g>
   <g id="patch_41">
    <path d="M 433.44 66.60576 
L 452.237838 66.60576 
L 452.237838 92.74824 
L 433.44 92.74824 
z
" clip-path="url(#p7e9b806a50)" style="fill: #227d6c"/>
   </g>
   <g id="patch_42">
    <path d="M 453.872432 66.60576 
L 472.67027 66.60576 
L 472.67027 92.74824 
L 453.872432 92.74824 
z
" clip-path="url(#p7e9b806a50)" style="fill: #227d6c"/>
   </g>
   <g id="patch_43">
    <path d="M 474.304865 66.60576 
L 493.102703 66.60576 
L 493.102703 92.74824 
L 474.304865 92.74824 
z
" clip-path="url(#p7e9b806a50)" style="fill: #a85421"/>
   </g>
   <g id="matplotlib.axis_3">
    <g id="xtick_11">
     <g id="line2d_13"/>
     <g id="text_34">
      <text style="font-size: 8px; font-family: 'Times New Roman'" transform="translate(296.87295 116.421316) rotate(-55)">1103</text>
     </g>
    </g>
    <g id="xtick_12">
     <g id="line2d_14"/>
     <g id="text_35">
      <text style="font-size: 8px; font-family: 'Times New Roman'" transform="translate(317.220421 116.66399) rotate(-55)">1229</text>
     </g>
    </g>
    <g id="xtick_13">
     <g id="line2d_15"/>
     <g id="text_36">
      <text style="font-size: 8px; font-family: 'Times New Roman'" transform="translate(337.652854 116.66399) rotate(-55)">1361</text>
     </g>
    </g>
    <g id="xtick_14">
     <g id="line2d_16"/>
     <g id="text_37">
      <text style="font-size: 8px; font-family: 'Times New Roman'" transform="translate(358.085286 116.66399) rotate(-55)">1499</text>
     </g>
    </g>
    <g id="xtick_15">
     <g id="line2d_17"/>
     <g id="text_38">
      <text style="font-size: 8px; font-family: 'Times New Roman'" transform="translate(378.517719 116.66399) rotate(-55)">1621</text>
     </g>
    </g>
    <g id="xtick_16">
     <g id="line2d_18"/>
     <g id="text_39">
      <text style="font-size: 8px; font-family: 'Times New Roman'" transform="translate(398.950151 116.66399) rotate(-55)">1747</text>
     </g>
    </g>
    <g id="xtick_17">
     <g id="line2d_19"/>
     <g id="text_40">
      <text style="font-size: 8px; font-family: 'Times New Roman'" transform="translate(419.382583 116.66399) rotate(-55)">1877</text>
     </g>
    </g>
    <g id="xtick_18">
     <g id="line2d_20"/>
     <g id="text_41">
      <text style="font-size: 8px; font-family: 'Times New Roman'" transform="translate(439.815016 116.66399) rotate(-55)">1999</text>
     </g>
    </g>
    <g id="xtick_19">
     <g id="line2d_21"/>
     <g id="text_42">
      <text style="font-size: 8px; font-family: 'Times New Roman'" transform="translate(460.247448 116.66399) rotate(-55)">2131</text>
     </g>
    </g>
    <g id="xtick_20">
     <g id="line2d_22"/>
     <g id="text_43">
      <text style="font-size: 8px; font-family: 'Times New Roman'" transform="translate(480.679881 116.66399) rotate(-55)">2267</text>
     </g>
    </g>
   </g>
   <g id="matplotlib.axis_4">
    <g id="ytick_3">
     <g id="line2d_23"/>
     <g id="text_44">
      <text style="font-size: 8px; font-family: 'Times New Roman'; text-anchor: end" x="286.095676" y="48.052437" transform="rotate(-0 286.095676 48.052437)">SIFT</text>
     </g>
    </g>
    <g id="ytick_4">
     <g id="line2d_24"/>
     <g id="text_45">
      <text style="font-size: 8px; font-family: 'Times New Roman'; text-anchor: end" x="286.095676" y="82.4545" transform="rotate(-0 286.095676 82.4545)">Arxiv</text>
     </g>
    </g>
   </g>
   <g id="text_46">
    <text style="font-size: 9px; font-family: 'Times New Roman'; text-anchor: middle; fill: #ffffff" x="299.811892" y="47.427926" transform="rotate(-0 299.811892 47.427926)">C</text>
   </g>
   <g id="text_47">
    <text style="font-size: 9px; font-family: 'Times New Roman'; text-anchor: middle; fill: #ffffff" x="320.244324" y="47.427926" transform="rotate(-0 320.244324 47.427926)">C</text>
   </g>
   <g id="text_48">
    <text style="font-size: 9px; font-family: 'Times New Roman'; text-anchor: middle; fill: #ffffff" x="340.676757" y="47.427926" transform="rotate(-0 340.676757 47.427926)">C</text>
   </g>
   <g id="text_49">
    <text style="font-size: 9px; font-family: 'Times New Roman'; text-anchor: middle; fill: #ffffff" x="361.109189" y="47.427926" transform="rotate(-0 361.109189 47.427926)">C</text>
   </g>
   <g id="text_50">
    <text style="font-size: 9px; font-family: 'Times New Roman'; text-anchor: middle; fill: #ffffff" x="381.541622" y="47.427926" transform="rotate(-0 381.541622 47.427926)">C</text>
   </g>
   <g id="text_51">
    <text style="font-size: 9px; font-family: 'Times New Roman'; text-anchor: middle; fill: #ffffff" x="401.974054" y="47.427926" transform="rotate(-0 401.974054 47.427926)">C</text>
   </g>
   <g id="text_52">
    <text style="font-size: 9px; font-family: 'Times New Roman'; text-anchor: middle; fill: #ffffff" x="422.406486" y="47.427926" transform="rotate(-0 422.406486 47.427926)">C</text>
   </g>
   <g id="text_53">
    <text style="font-size: 9px; font-family: 'Times New Roman'; text-anchor: middle; fill: #ffffff" x="442.838919" y="47.427926" transform="rotate(-0 442.838919 47.427926)">C</text>
   </g>
   <g id="text_54">
    <text style="font-size: 9px; font-family: 'Times New Roman'; text-anchor: middle; fill: #ffffff" x="463.271351" y="47.427926" transform="rotate(-0 463.271351 47.427926)">C</text>
   </g>
   <g id="text_55">
    <text style="font-size: 9px; font-family: 'Times New Roman'; text-anchor: middle; fill: #ffffff" x="483.703784" y="47.427926" transform="rotate(-0 483.703784 47.427926)">C</text>
   </g>
   <g id="text_56">
    <text style="font-size: 9px; font-family: 'Times New Roman'; text-anchor: middle; fill: #ffffff" x="299.811892" y="81.825926" transform="rotate(-0 299.811892 81.825926)">C</text>
   </g>
   <g id="text_57">
    <text style="font-size: 9px; font-family: 'Times New Roman'; text-anchor: middle; fill: #ffffff" x="320.244324" y="81.825926" transform="rotate(-0 320.244324 81.825926)">E</text>
   </g>
   <g id="text_58">
    <text style="font-size: 9px; font-family: 'Times New Roman'; text-anchor: middle; fill: #ffffff" x="340.676757" y="81.825926" transform="rotate(-0 340.676757 81.825926)">C</text>
   </g>
   <g id="text_59">
    <text style="font-size: 9px; font-family: 'Times New Roman'; text-anchor: middle; fill: #ffffff" x="361.109189" y="81.825926" transform="rotate(-0 361.109189 81.825926)">E</text>
   </g>
   <g id="text_60">
    <text style="font-size: 9px; font-family: 'Times New Roman'; text-anchor: middle; fill: #ffffff" x="381.541622" y="81.825926" transform="rotate(-0 381.541622 81.825926)">E</text>
   </g>
   <g id="text_61">
    <text style="font-size: 9px; font-family: 'Times New Roman'; text-anchor: middle; fill: #ffffff" x="401.974054" y="81.825926" transform="rotate(-0 401.974054 81.825926)">C</text>
   </g>
   <g id="text_62">
    <text style="font-size: 9px; font-family: 'Times New Roman'; text-anchor: middle; fill: #ffffff" x="422.406486" y="81.825926" transform="rotate(-0 422.406486 81.825926)">C</text>
   </g>
   <g id="text_63">
    <text style="font-size: 9px; font-family: 'Times New Roman'; text-anchor: middle; fill: #ffffff" x="442.838919" y="81.825926" transform="rotate(-0 442.838919 81.825926)">C</text>
   </g>
   <g id="text_64">
    <text style="font-size: 9px; font-family: 'Times New Roman'; text-anchor: middle; fill: #ffffff" x="463.271351" y="81.825926" transform="rotate(-0 463.271351 81.825926)">C</text>
   </g>
   <g id="text_65">
    <text style="font-size: 9px; font-family: 'Times New Roman'; text-anchor: middle; fill: #ffffff" x="483.703784" y="81.825926" transform="rotate(-0 483.703784 81.825926)">E</text>
   </g>
   <g id="text_66">
    <text style="font-size: 10px; font-family: 'Times New Roman'; text-anchor: middle" x="391.757838" y="22.08" transform="rotate(-0 391.757838 22.08)">Joint-error sensitivity</text>
   </g>
  </g>
 </g>
 <defs>
  <clipPath id="p2d973a5de8">
   <rect x="40.32" y="28.08" width="204.324324" height="68.796"/>
  </clipPath>
  <clipPath id="p7e9b806a50">
   <rect x="289.595676" y="28.08" width="204.324324" height="68.796"/>
  </clipPath>
 </defs>
</svg>
